<svg xmlns="http://www.w3.org/2000/svg" viewBox="0 0 800 600" width="800" height="600">
<defs>
  <linearGradient id="bg" x1="0%" y1="0%" x2="100%" y2="100%">
    <stop offset="0%" style="stop-color:#0d1117"/>
    <stop offset="100%" style="stop-color:#161b22"/>
  </linearGradient>
</defs>
<rect width="800" height="600" fill="url(#bg)"/>
<g opacity="0.25" stroke="#58a6ff" stroke-width="0.5">
<line x1="319.0" y1="279.2" x2="446.9" y2="288.1"/>
<line x1="337.3" y1="294.0" x2="446.9" y2="288.1"/>
<line x1="405.8" y1="342.3" x2="446.9" y2="288.1"/>
<line x1="468.7" y1="303.0" x2="446.9" y2="288.1"/>
<line x1="477.2" y1="337.0" x2="446.9" y2="288.1"/>
<line x1="319.0" y1="279.2" x2="337.3" y2="294.0"/>
<line x1="337.3" y1="294.0" x2="257.0" y2="241.0"/>
<line x1="337.3" y1="294.0" x2="310.4" y2="378.9"/>
<line x1="472.5" y1="244.3" x2="514.1" y2="230.0"/>
<line x1="472.5" y1="244.3" x2="516.3" y2="363.2"/>
<line x1="437.7" y1="228.9" x2="470.7" y2="271.2"/>
<line x1="319.0" y1="279.2" x2="378.7" y2="294.6"/>
<line x1="337.3" y1="294.0" x2="378.7" y2="294.6"/>
<line x1="437.7" y1="228.9" x2="378.7" y2="294.6"/>
<line x1="470.7" y1="271.2" x2="393.3" y2="331.9"/>
<line x1="378.7" y1="294.6" x2="393.3" y2="331.9"/>
<line x1="337.3" y1="294.0" x2="393.3" y2="331.9"/>
<line x1="381.6" y1="242.5" x2="309.2" y2="342.5"/>
<line x1="369.2" y1="269.7" x2="309.2" y2="342.5"/>
<line x1="381.6" y1="242.5" x2="358.5" y2="164.3"/>
<line x1="381.6" y1="242.5" x2="403.8" y2="255.8"/>
<line x1="381.6" y1="242.5" x2="347.4" y2="287.7"/>
<line x1="403.8" y1="255.8" x2="347.4" y2="287.7"/>
<line x1="369.2" y1="269.7" x2="347.4" y2="287.7"/>
<line x1="377.9" y1="254.3" x2="347.4" y2="287.7"/>
<line x1="379.5" y1="229.0" x2="347.4" y2="287.7"/>
<line x1="381.6" y1="242.5" x2="404.0" y2="183.3"/>
<line x1="381.6" y1="242.5" x2="377.9" y2="254.3"/>
<line x1="381.6" y1="242.5" x2="379.5" y2="229.0"/>
<line x1="381.6" y1="242.5" x2="421.2" y2="238.5"/>
<line x1="403.8" y1="255.8" x2="421.2" y2="238.5"/>
<line x1="369.2" y1="269.7" x2="421.2" y2="238.5"/>
<line x1="358.5" y1="164.3" x2="369.2" y2="269.7"/>
<line x1="381.6" y1="242.5" x2="369.2" y2="269.7"/>
<line x1="403.8" y1="255.8" x2="369.2" y2="269.7"/>
<line x1="381.6" y1="242.5" x2="468.3" y2="233.4"/>
<line x1="403.8" y1="255.8" x2="468.3" y2="233.4"/>
<line x1="404.0" y1="183.3" x2="468.3" y2="233.4"/>
<line x1="468.7" y1="303.0" x2="477.2" y2="337.0"/>
<line x1="443.5" y1="337.1" x2="477.2" y2="337.0"/>
<line x1="475.5" y1="346.7" x2="477.2" y2="337.0"/>
<line x1="209.9" y1="242.7" x2="273.4" y2="282.1"/>
<line x1="307.9" y1="189.1" x2="273.4" y2="282.1"/>
<line x1="368.1" y1="418.1" x2="273.4" y2="282.1"/>
<line x1="320.5" y1="396.6" x2="273.4" y2="282.1"/>
<line x1="212.6" y1="226.9" x2="273.4" y2="282.1"/>
<line x1="350.4" y1="224.8" x2="416.3" y2="273.7"/>
<line x1="381.6" y1="242.5" x2="416.3" y2="273.7"/>
<line x1="369.2" y1="269.7" x2="416.3" y2="273.7"/>
<line x1="421.2" y1="238.5" x2="416.3" y2="273.7"/>
<line x1="403.8" y1="255.8" x2="416.3" y2="273.7"/>
<line x1="377.9" y1="254.3" x2="416.3" y2="273.7"/>
<line x1="350.4" y1="224.8" x2="436.2" y2="249.9"/>
<line x1="381.6" y1="242.5" x2="436.2" y2="249.9"/>
<line x1="369.2" y1="269.7" x2="436.2" y2="249.9"/>
<line x1="421.2" y1="238.5" x2="436.2" y2="249.9"/>
<line x1="403.8" y1="255.8" x2="436.2" y2="249.9"/>
<line x1="468.3" y1="233.4" x2="436.2" y2="249.9"/>
<line x1="379.5" y1="229.0" x2="397.1" y2="266.3"/>
<line x1="350.4" y1="224.8" x2="397.1" y2="266.3"/>
<line x1="381.6" y1="242.5" x2="397.1" y2="266.3"/>
<line x1="369.2" y1="269.7" x2="397.1" y2="266.3"/>
<line x1="421.2" y1="238.5" x2="397.1" y2="266.3"/>
<line x1="403.8" y1="255.8" x2="397.1" y2="266.3"/>
<line x1="381.0" y1="290.7" x2="374.5" y2="268.1"/>
<line x1="347.4" y1="287.7" x2="374.5" y2="268.1"/>
<line x1="369.2" y1="269.7" x2="374.5" y2="268.1"/>
<line x1="381.0" y1="290.7" x2="526.2" y2="333.6"/>
<line x1="369.2" y1="269.7" x2="392.9" y2="324.4"/>
<line x1="377.9" y1="254.3" x2="392.9" y2="324.4"/>
<line x1="381.0" y1="290.7" x2="392.9" y2="324.4"/>
<line x1="369.2" y1="269.7" x2="381.0" y2="290.7"/>
<line x1="347.4" y1="287.7" x2="381.0" y2="290.7"/>
<line x1="369.2" y1="269.7" x2="306.7" y2="262.1"/>
<line x1="347.4" y1="287.7" x2="306.7" y2="262.1"/>
<line x1="381.0" y1="290.7" x2="306.7" y2="262.1"/>
<line x1="377.9" y1="254.3" x2="306.7" y2="262.1"/>
<line x1="347.4" y1="287.7" x2="322.5" y2="383.1"/>
<line x1="369.2" y1="269.7" x2="451.7" y2="285.4"/>
<line x1="347.4" y1="287.7" x2="451.7" y2="285.4"/>
<line x1="381.0" y1="290.7" x2="451.7" y2="285.4"/>
<line x1="347.4" y1="287.7" x2="257.1" y2="333.4"/>
<line x1="381.6" y1="242.5" x2="345.0" y2="266.3"/>
<line x1="403.8" y1="255.8" x2="345.0" y2="266.3"/>
<line x1="347.4" y1="287.7" x2="345.0" y2="266.3"/>
<line x1="369.2" y1="269.7" x2="345.0" y2="266.3"/>
<line x1="381.0" y1="290.7" x2="345.0" y2="266.3"/>
<line x1="409.0" y1="326.0" x2="322.4" y2="221.4"/>
<line x1="377.9" y1="254.3" x2="352.5" y2="160.5"/>
<line x1="422.1" y1="160.4" x2="352.5" y2="160.5"/>
<line x1="409.0" y1="326.0" x2="402.3" y2="381.5"/>
<line x1="443.0" y1="441.8" x2="402.3" y2="381.5"/>
<line x1="287.4" y1="280.4" x2="236.5" y2="280.1"/>
<line x1="377.9" y1="254.3" x2="422.1" y2="160.4"/>
<line x1="527.2" y1="284.0" x2="457.7" y2="306.9"/>
<line x1="381.6" y1="242.5" x2="323.6" y2="266.4"/>
<line x1="421.2" y1="238.5" x2="323.6" y2="266.4"/>
<line x1="369.2" y1="269.7" x2="323.6" y2="266.4"/>
<line x1="557.6" y1="333.9" x2="548.4" y2="297.3"/>
<line x1="468.3" y1="233.4" x2="527.2" y2="284.0"/>
<line x1="436.2" y1="249.9" x2="527.2" y2="284.0"/>
<line x1="372.9" y1="346.5" x2="409.0" y2="326.0"/>
<line x1="409.0" y1="326.0" x2="287.4" y2="280.4"/>
<line x1="287.4" y1="280.4" x2="424.1" y2="180.4"/>
<line x1="379.5" y1="229.0" x2="434.8" y2="244.5"/>
<line x1="397.1" y1="266.3" x2="434.8" y2="244.5"/>
<line x1="409.0" y1="326.0" x2="503.2" y2="363.3"/>
<line x1="468.7" y1="303.0" x2="405.8" y2="342.3"/>
<line x1="407.1" y1="255.1" x2="402.7" y2="317.8"/>
<line x1="339.3" y1="199.8" x2="348.5" y2="260.3"/>
<line x1="407.1" y1="255.1" x2="348.5" y2="260.3"/>
<line x1="377.7" y1="206.0" x2="348.5" y2="260.3"/>
<line x1="339.3" y1="199.8" x2="383.4" y2="232.3"/>
<line x1="407.1" y1="255.1" x2="383.4" y2="232.3"/>
<line x1="376.3" y1="188.1" x2="383.4" y2="232.3"/>
<line x1="348.5" y1="260.3" x2="383.4" y2="232.3"/>
<line x1="403.6" y1="192.8" x2="478.4" y2="156.0"/>
<line x1="348.5" y1="260.3" x2="300.0" y2="202.3"/>
<line x1="377.7" y1="206.0" x2="300.0" y2="202.3"/>
<line x1="407.1" y1="255.1" x2="377.7" y2="206.0"/>
<line x1="339.3" y1="199.8" x2="403.6" y2="192.8"/>
<line x1="407.1" y1="255.1" x2="403.6" y2="192.8"/>
<line x1="376.3" y1="188.1" x2="403.6" y2="192.8"/>
<line x1="339.3" y1="199.8" x2="376.3" y2="188.1"/>
<line x1="407.1" y1="255.1" x2="376.3" y2="188.1"/>
<line x1="300.0" y1="202.3" x2="376.3" y2="188.1"/>
<line x1="469.4" y1="257.9" x2="468.7" y2="303.0"/>
<line x1="456.5" y1="371.1" x2="468.7" y2="303.0"/>
<line x1="443.5" y1="337.1" x2="519.9" y2="270.6"/>
<line x1="370.3" y1="326.7" x2="446.1" y2="321.2"/>
<line x1="470.6" y1="319.3" x2="446.1" y2="321.2"/>
<line x1="456.5" y1="371.1" x2="446.1" y2="321.2"/>
<line x1="446.1" y1="321.2" x2="519.5" y2="206.2"/>
<line x1="533.6" y1="412.1" x2="458.9" y2="416.4"/>
<line x1="456.5" y1="371.1" x2="458.9" y2="416.4"/>
<line x1="469.4" y1="257.9" x2="370.3" y2="326.7"/>
<line x1="469.4" y1="257.9" x2="443.5" y2="337.1"/>
<line x1="456.5" y1="371.1" x2="443.5" y2="337.1"/>
<line x1="370.3" y1="326.7" x2="443.5" y2="337.1"/>
<line x1="443.5" y1="337.1" x2="356.2" y2="334.5"/>
<line x1="470.6" y1="319.3" x2="356.2" y2="334.5"/>
<line x1="443.5" y1="337.1" x2="431.6" y2="395.1"/>
<line x1="446.1" y1="321.2" x2="431.6" y2="395.1"/>
<line x1="319.0" y1="279.2" x2="327.6" y2="261.7"/>
<line x1="337.3" y1="294.0" x2="327.6" y2="261.7"/>
<line x1="378.7" y1="294.6" x2="327.6" y2="261.7"/>
</g>
<g>
<circle cx="250.2" cy="340.9" r="4" fill="#607d8b" opacity="0.9"/>
<circle cx="446.9" cy="288.1" r="4" fill="#43a047" opacity="0.9"/>
<circle cx="325.6" cy="268.1" r="4" fill="#43a047" opacity="0.9"/>
<circle cx="472.5" cy="244.3" r="4" fill="#00acc1" opacity="0.9"/>
<circle cx="337.3" cy="294.0" r="4" fill="#00acc1" opacity="0.9"/>
<circle cx="319.0" cy="279.2" r="4" fill="#00acc1" opacity="0.9"/>
<circle cx="257.0" cy="241.0" r="4" fill="#00acc1" opacity="0.9"/>
<circle cx="310.4" cy="378.9" r="4" fill="#00acc1" opacity="0.9"/>
<circle cx="514.1" cy="230.0" r="4" fill="#00acc1" opacity="0.9"/>
<circle cx="595.2" cy="248.9" r="4" fill="#00acc1" opacity="0.9"/>
<circle cx="516.3" cy="363.2" r="4" fill="#00acc1" opacity="0.9"/>
<circle cx="470.7" cy="271.2" r="4" fill="#00acc1" opacity="0.9"/>
<circle cx="378.7" cy="294.6" r="4" fill="#00acc1" opacity="0.9"/>
<circle cx="393.3" cy="331.9" r="4" fill="#00acc1" opacity="0.9"/>
<circle cx="437.7" cy="228.9" r="4" fill="#00acc1" opacity="0.9"/>
<circle cx="307.9" cy="189.1" r="4" fill="#9c27b0" opacity="0.9"/>
<circle cx="309.2" cy="342.5" r="4" fill="#9c27b0" opacity="0.9"/>
<circle cx="358.5" cy="164.3" r="4" fill="#9c27b0" opacity="0.9"/>
<circle cx="368.1" cy="418.1" r="4" fill="#9c27b0" opacity="0.9"/>
<circle cx="403.8" cy="255.8" r="4" fill="#9c27b0" opacity="0.9"/>
<circle cx="609.0" cy="274.0" r="4" fill="#9c27b0" opacity="0.9"/>
<circle cx="347.4" cy="287.7" r="4" fill="#9c27b0" opacity="0.9"/>
<circle cx="404.0" cy="183.3" r="4" fill="#9c27b0" opacity="0.9"/>
<circle cx="350.4" cy="224.8" r="4" fill="#9c27b0" opacity="0.9"/>
<circle cx="475.5" cy="346.7" r="4" fill="#9c27b0" opacity="0.9"/>
<circle cx="377.9" cy="254.3" r="4" fill="#9c27b0" opacity="0.9"/>
<circle cx="379.5" cy="229.0" r="4" fill="#9c27b0" opacity="0.9"/>
<circle cx="381.6" cy="242.5" r="4" fill="#9c27b0" opacity="0.9"/>
<circle cx="212.6" cy="226.9" r="4" fill="#9c27b0" opacity="0.9"/>
<circle cx="372.9" cy="346.5" r="4" fill="#9c27b0" opacity="0.9"/>
<circle cx="421.2" cy="238.5" r="4" fill="#9c27b0" opacity="0.9"/>
<circle cx="369.2" cy="269.7" r="4" fill="#9c27b0" opacity="0.9"/>
<circle cx="468.3" cy="233.4" r="4" fill="#9c27b0" opacity="0.9"/>
<circle cx="209.9" cy="242.7" r="4" fill="#9c27b0" opacity="0.9"/>
<circle cx="320.5" cy="396.6" r="4" fill="#9c27b0" opacity="0.9"/>
<circle cx="209.1" cy="317.1" r="4" fill="#9c27b0" opacity="0.9"/>
<circle cx="477.2" cy="337.0" r="4" fill="#9c27b0" opacity="0.9"/>
<circle cx="273.4" cy="282.1" r="4" fill="#9c27b0" opacity="0.9"/>
<circle cx="416.3" cy="273.7" r="4" fill="#9c27b0" opacity="0.9"/>
<circle cx="436.2" cy="249.9" r="4" fill="#9c27b0" opacity="0.9"/>
<circle cx="397.1" cy="266.3" r="4" fill="#9c27b0" opacity="0.9"/>
<circle cx="374.5" cy="268.1" r="4" fill="#43a047" opacity="0.9"/>
<circle cx="526.2" cy="333.6" r="4" fill="#43a047" opacity="0.9"/>
<circle cx="425.8" cy="386.4" r="4" fill="#43a047" opacity="0.9"/>
<circle cx="392.9" cy="324.4" r="4" fill="#43a047" opacity="0.9"/>
<circle cx="381.0" cy="290.7" r="4" fill="#43a047" opacity="0.9"/>
<circle cx="276.9" cy="320.5" r="4" fill="#43a047" opacity="0.9"/>
<circle cx="176.1" cy="345.5" r="4" fill="#43a047" opacity="0.9"/>
<circle cx="306.7" cy="262.1" r="4" fill="#43a047" opacity="0.9"/>
<circle cx="322.5" cy="383.1" r="4" fill="#43a047" opacity="0.9"/>
<circle cx="451.7" cy="285.4" r="4" fill="#43a047" opacity="0.9"/>
<circle cx="257.1" cy="333.4" r="4" fill="#43a047" opacity="0.9"/>
<circle cx="345.0" cy="266.3" r="4" fill="#43a047" opacity="0.9"/>
<circle cx="322.4" cy="221.4" r="4" fill="#9c27b0" opacity="0.9"/>
<circle cx="549.6" cy="257.2" r="4" fill="#9c27b0" opacity="0.9"/>
<circle cx="400.1" cy="138.4" r="4" fill="#9c27b0" opacity="0.9"/>
<circle cx="352.5" cy="160.5" r="4" fill="#9c27b0" opacity="0.9"/>
<circle cx="240.8" cy="399.0" r="4" fill="#9c27b0" opacity="0.9"/>
<circle cx="402.3" cy="381.5" r="4" fill="#9c27b0" opacity="0.9"/>
<circle cx="236.5" cy="280.1" r="4" fill="#9c27b0" opacity="0.9"/>
<circle cx="443.0" cy="441.8" r="4" fill="#9c27b0" opacity="0.9"/>
<circle cx="422.1" cy="160.4" r="4" fill="#9c27b0" opacity="0.9"/>
<circle cx="457.7" cy="306.9" r="4" fill="#9c27b0" opacity="0.9"/>
<circle cx="323.6" cy="266.4" r="4" fill="#9c27b0" opacity="0.9"/>
<circle cx="548.4" cy="297.3" r="4" fill="#9c27b0" opacity="0.9"/>
<circle cx="557.6" cy="333.9" r="4" fill="#9c27b0" opacity="0.9"/>
<circle cx="527.2" cy="284.0" r="4" fill="#9c27b0" opacity="0.9"/>
<circle cx="409.0" cy="326.0" r="4" fill="#9c27b0" opacity="0.9"/>
<circle cx="287.4" cy="280.4" r="4" fill="#9c27b0" opacity="0.9"/>
<circle cx="424.1" cy="180.4" r="4" fill="#9c27b0" opacity="0.9"/>
<circle cx="434.8" cy="244.5" r="4" fill="#9c27b0" opacity="0.9"/>
<circle cx="503.2" cy="363.3" r="4" fill="#9c27b0" opacity="0.9"/>
<circle cx="405.8" cy="342.3" r="4" fill="#8e24aa" opacity="0.9"/>
<circle cx="407.1" cy="255.1" r="4" fill="#8e24aa" opacity="0.9"/>
<circle cx="402.7" cy="317.8" r="4" fill="#8e24aa" opacity="0.9"/>
<circle cx="348.5" cy="260.3" r="4" fill="#8e24aa" opacity="0.9"/>
<circle cx="383.4" cy="232.3" r="4" fill="#8e24aa" opacity="0.9"/>
<circle cx="478.4" cy="156.0" r="4" fill="#43a047" opacity="0.9"/>
<circle cx="300.0" cy="202.3" r="4" fill="#8e24aa" opacity="0.9"/>
<circle cx="377.7" cy="206.0" r="4" fill="#8e24aa" opacity="0.9"/>
<circle cx="316.5" cy="298.8" r="4" fill="#8e24aa" opacity="0.9"/>
<circle cx="403.6" cy="192.8" r="4" fill="#8e24aa" opacity="0.9"/>
<circle cx="376.3" cy="188.1" r="4" fill="#8e24aa" opacity="0.9"/>
<circle cx="339.3" cy="199.8" r="4" fill="#8e24aa" opacity="0.9"/>
<circle cx="469.4" cy="257.9" r="4" fill="#fb8c00" opacity="0.9"/>
<circle cx="468.7" cy="303.0" r="4" fill="#fb8c00" opacity="0.9"/>
<circle cx="525.1" cy="321.4" r="4" fill="#fb8c00" opacity="0.9"/>
<circle cx="470.6" cy="319.3" r="4" fill="#fb8c00" opacity="0.9"/>
<circle cx="533.6" cy="412.1" r="4" fill="#fb8c00" opacity="0.9"/>
<circle cx="519.9" cy="270.6" r="4" fill="#fb8c00" opacity="0.9"/>
<circle cx="364.7" cy="366.7" r="4" fill="#fb8c00" opacity="0.9"/>
<circle cx="446.1" cy="321.2" r="4" fill="#fb8c00" opacity="0.9"/>
<circle cx="519.5" cy="206.2" r="4" fill="#fb8c00" opacity="0.9"/>
<circle cx="458.9" cy="416.4" r="4" fill="#fb8c00" opacity="0.9"/>
<circle cx="370.3" cy="326.7" r="4" fill="#fb8c00" opacity="0.9"/>
<circle cx="443.5" cy="337.1" r="4" fill="#fb8c00" opacity="0.9"/>
<circle cx="356.2" cy="334.5" r="4" fill="#fb8c00" opacity="0.9"/>
<circle cx="456.5" cy="371.1" r="4" fill="#fb8c00" opacity="0.9"/>
<circle cx="431.6" cy="395.1" r="4" fill="#fb8c00" opacity="0.9"/>
<circle cx="327.6" cy="261.7" r="4" fill="#7cb342" opacity="0.9"/>
</g>
<g font-family="system-ui, sans-serif" font-size="11">
<circle cx="25" cy="30" r="5" fill="#9c27b0"/>
<text x="35" y="34" fill="#8b949e">ZK (45)</text>
<circle cx="25" cy="48" r="5" fill="#43a047"/>
<text x="35" y="52" fill="#8b949e">CLI (15)</text>
<circle cx="25" cy="66" r="5" fill="#fb8c00"/>
<text x="35" y="70" fill="#8b949e">Lattice (15)</text>
<circle cx="25" cy="84" r="5" fill="#00acc1"/>
<text x="35" y="88" fill="#8b949e">CryptoSheaf (12)</text>
<circle cx="25" cy="102" r="5" fill="#8e24aa"/>
<text x="35" y="106" fill="#8b949e">FHE (11)</text>
<circle cx="25" cy="120" r="5" fill="#607d8b"/>
<text x="35" y="124" fill="#8b949e">Other (1)</text>
<circle cx="25" cy="138" r="5" fill="#7cb342"/>
<text x="35" y="142" fill="#8b949e">UnifiedPack (1)</text>
</g>
<text x="400.0" y="25" font-family="system-ui, sans-serif" font-size="14" fill="#c9d1d9" text-anchor="middle" font-weight="600">Unified Demo Pack — 100 Modules · 146 Dependencies</text>
<text x="400.0" y="585" font-family="system-ui, sans-serif" font-size="10" fill="#6e7681" text-anchor="middle">Click to open interactive 3D viewer</text>
</svg>