<?xml version="1.0"?>
<svg xmlns="http://www.w3.org/2000/svg" width="1200" height="700" viewBox="0 0 1200 700">
<rect width="1200" height="700" fill="#0b0f14"/>
<text x="40" y="28" fill="#fff" font-size="18" font-family="system-ui">3D Proof Map — Unified Demo Pack</text>
<text x="40" y="46" fill="#8b949e" font-size="11" font-family="system-ui">100 modules • 146 edges • Click for interactive</text>
<rect x="40" y="56" width="850" height="600" fill="#0f1721" stroke="#1c2a3a" rx="4"/>
<line x1="552" y1="396" x2="759" y2="462" stroke="#3b4b5d" stroke-opacity="0.2"/>
<line x1="790" y1="348" x2="759" y2="462" stroke="#3b4b5d" stroke-opacity="0.2"/>
<line x1="539" y1="440" x2="759" y2="462" stroke="#3b4b5d" stroke-opacity="0.2"/>
<line x1="420" y1="393" x2="759" y2="462" stroke="#3b4b5d" stroke-opacity="0.2"/>
<line x1="676" y1="322" x2="759" y2="462" stroke="#3b4b5d" stroke-opacity="0.2"/>
<line x1="552" y1="396" x2="790" y2="348" stroke="#3b4b5d" stroke-opacity="0.2"/>
<line x1="790" y1="348" x2="709" y2="412" stroke="#3b4b5d" stroke-opacity="0.2"/>
<line x1="790" y1="348" x2="626" y2="376" stroke="#3b4b5d" stroke-opacity="0.2"/>
<line x1="703" y1="220" x2="475" y2="415" stroke="#3b4b5d" stroke-opacity="0.2"/>
<line x1="703" y1="220" x2="547" y2="440" stroke="#3b4b5d" stroke-opacity="0.2"/>
<line x1="460" y1="363" x2="604" y2="443" stroke="#3b4b5d" stroke-opacity="0.2"/>
<line x1="552" y1="396" x2="602" y2="334" stroke="#3b4b5d" stroke-opacity="0.2"/>
<line x1="790" y1="348" x2="602" y2="334" stroke="#3b4b5d" stroke-opacity="0.2"/>
<line x1="460" y1="363" x2="602" y2="334" stroke="#3b4b5d" stroke-opacity="0.2"/>
<line x1="604" y1="443" x2="488" y2="288" stroke="#3b4b5d" stroke-opacity="0.2"/>
<line x1="602" y1="334" x2="488" y2="288" stroke="#3b4b5d" stroke-opacity="0.2"/>
<line x1="790" y1="348" x2="488" y2="288" stroke="#3b4b5d" stroke-opacity="0.2"/>
<line x1="633" y1="309" x2="629" y2="499" stroke="#3b4b5d" stroke-opacity="0.2"/>
<line x1="796" y1="428" x2="629" y2="499" stroke="#3b4b5d" stroke-opacity="0.2"/>
<line x1="633" y1="309" x2="667" y2="330" stroke="#3b4b5d" stroke-opacity="0.2"/>
<line x1="633" y1="309" x2="775" y2="302" stroke="#3b4b5d" stroke-opacity="0.2"/>
<line x1="633" y1="309" x2="666" y2="318" stroke="#3b4b5d" stroke-opacity="0.2"/>
<line x1="775" y1="302" x2="666" y2="318" stroke="#3b4b5d" stroke-opacity="0.2"/>
<line x1="796" y1="428" x2="666" y2="318" stroke="#3b4b5d" stroke-opacity="0.2"/>
<line x1="715" y1="456" x2="666" y2="318" stroke="#3b4b5d" stroke-opacity="0.2"/>
<line x1="584" y1="390" x2="666" y2="318" stroke="#3b4b5d" stroke-opacity="0.2"/>
<line x1="633" y1="309" x2="362" y2="417" stroke="#3b4b5d" stroke-opacity="0.2"/>
<line x1="633" y1="309" x2="715" y2="456" stroke="#3b4b5d" stroke-opacity="0.2"/>
<line x1="633" y1="309" x2="584" y2="390" stroke="#3b4b5d" stroke-opacity="0.2"/>
<line x1="633" y1="309" x2="864" y2="289" stroke="#3b4b5d" stroke-opacity="0.2"/>
<line x1="775" y1="302" x2="864" y2="289" stroke="#3b4b5d" stroke-opacity="0.2"/>
<line x1="796" y1="428" x2="864" y2="289" stroke="#3b4b5d" stroke-opacity="0.2"/>
<line x1="667" y1="330" x2="796" y2="428" stroke="#3b4b5d" stroke-opacity="0.2"/>
<line x1="633" y1="309" x2="796" y2="428" stroke="#3b4b5d" stroke-opacity="0.2"/>
<line x1="775" y1="302" x2="796" y2="428" stroke="#3b4b5d" stroke-opacity="0.2"/>
<line x1="633" y1="309" x2="406" y2="477" stroke="#3b4b5d" stroke-opacity="0.2"/>
<line x1="775" y1="302" x2="406" y2="477" stroke="#3b4b5d" stroke-opacity="0.2"/>
<line x1="362" y1="417" x2="406" y2="477" stroke="#3b4b5d" stroke-opacity="0.2"/>
<line x1="420" y1="393" x2="676" y2="322" stroke="#3b4b5d" stroke-opacity="0.2"/>
<line x1="785" y1="272" x2="676" y2="322" stroke="#3b4b5d" stroke-opacity="0.2"/>
<line x1="717" y1="439" x2="676" y2="322" stroke="#3b4b5d" stroke-opacity="0.2"/>
<line x1="768" y1="448" x2="667" y2="403" stroke="#3b4b5d" stroke-opacity="0.2"/>
<line x1="463" y1="440" x2="667" y2="403" stroke="#3b4b5d" stroke-opacity="0.2"/>
<line x1="687" y1="266" x2="667" y2="403" stroke="#3b4b5d" stroke-opacity="0.2"/>
<line x1="379" y1="444" x2="667" y2="403" stroke="#3b4b5d" stroke-opacity="0.2"/>
<line x1="625" y1="252" x2="667" y2="403" stroke="#3b4b5d" stroke-opacity="0.2"/>
<line x1="441" y1="264" x2="498" y2="432" stroke="#3b4b5d" stroke-opacity="0.2"/>
<line x1="633" y1="309" x2="498" y2="432" stroke="#3b4b5d" stroke-opacity="0.2"/>
<line x1="796" y1="428" x2="498" y2="432" stroke="#3b4b5d" stroke-opacity="0.2"/>
<line x1="864" y1="289" x2="498" y2="432" stroke="#3b4b5d" stroke-opacity="0.2"/>
<line x1="775" y1="302" x2="498" y2="432" stroke="#3b4b5d" stroke-opacity="0.2"/>
<line x1="715" y1="456" x2="498" y2="432" stroke="#3b4b5d" stroke-opacity="0.2"/>
<line x1="441" y1="264" x2="487" y2="458" stroke="#3b4b5d" stroke-opacity="0.2"/>
<line x1="633" y1="309" x2="487" y2="458" stroke="#3b4b5d" stroke-opacity="0.2"/>
<line x1="796" y1="428" x2="487" y2="458" stroke="#3b4b5d" stroke-opacity="0.2"/>
<line x1="864" y1="289" x2="487" y2="458" stroke="#3b4b5d" stroke-opacity="0.2"/>
<line x1="775" y1="302" x2="487" y2="458" stroke="#3b4b5d" stroke-opacity="0.2"/>
<line x1="406" y1="477" x2="487" y2="458" stroke="#3b4b5d" stroke-opacity="0.2"/>
<line x1="584" y1="390" x2="378" y2="397" stroke="#3b4b5d" stroke-opacity="0.2"/>
<line x1="441" y1="264" x2="378" y2="397" stroke="#3b4b5d" stroke-opacity="0.2"/>
<line x1="633" y1="309" x2="378" y2="397" stroke="#3b4b5d" stroke-opacity="0.2"/>
<line x1="796" y1="428" x2="378" y2="397" stroke="#3b4b5d" stroke-opacity="0.2"/>
<line x1="864" y1="289" x2="378" y2="397" stroke="#3b4b5d" stroke-opacity="0.2"/>
<line x1="775" y1="302" x2="378" y2="397" stroke="#3b4b5d" stroke-opacity="0.2"/>
<line x1="569" y1="490" x2="491" y2="247" stroke="#3b4b5d" stroke-opacity="0.2"/>
<line x1="666" y1="318" x2="491" y2="247" stroke="#3b4b5d" stroke-opacity="0.2"/>
<line x1="796" y1="428" x2="491" y2="247" stroke="#3b4b5d" stroke-opacity="0.2"/>
<line x1="569" y1="490" x2="532" y2="446" stroke="#3b4b5d" stroke-opacity="0.2"/>
<line x1="796" y1="428" x2="683" y2="414" stroke="#3b4b5d" stroke-opacity="0.2"/>
<line x1="715" y1="456" x2="683" y2="414" stroke="#3b4b5d" stroke-opacity="0.2"/>
<line x1="569" y1="490" x2="683" y2="414" stroke="#3b4b5d" stroke-opacity="0.2"/>
<line x1="796" y1="428" x2="569" y2="490" stroke="#3b4b5d" stroke-opacity="0.2"/>
<line x1="666" y1="318" x2="569" y2="490" stroke="#3b4b5d" stroke-opacity="0.2"/>
<line x1="796" y1="428" x2="486" y2="441" stroke="#3b4b5d" stroke-opacity="0.2"/>
<line x1="666" y1="318" x2="486" y2="441" stroke="#3b4b5d" stroke-opacity="0.2"/>
<line x1="569" y1="490" x2="486" y2="441" stroke="#3b4b5d" stroke-opacity="0.2"/>
<line x1="715" y1="456" x2="486" y2="441" stroke="#3b4b5d" stroke-opacity="0.2"/>
<line x1="666" y1="318" x2="511" y2="387" stroke="#3b4b5d" stroke-opacity="0.2"/>
<line x1="796" y1="428" x2="602" y2="321" stroke="#3b4b5d" stroke-opacity="0.2"/>
<line x1="666" y1="318" x2="602" y2="321" stroke="#3b4b5d" stroke-opacity="0.2"/>
<line x1="569" y1="490" x2="602" y2="321" stroke="#3b4b5d" stroke-opacity="0.2"/>
<line x1="666" y1="318" x2="741" y2="279" stroke="#3b4b5d" stroke-opacity="0.2"/>
<line x1="633" y1="309" x2="590" y2="315" stroke="#3b4b5d" stroke-opacity="0.2"/>
<line x1="775" y1="302" x2="590" y2="315" stroke="#3b4b5d" stroke-opacity="0.2"/>
<line x1="666" y1="318" x2="590" y2="315" stroke="#3b4b5d" stroke-opacity="0.2"/>
<line x1="796" y1="428" x2="590" y2="315" stroke="#3b4b5d" stroke-opacity="0.2"/>
<line x1="569" y1="490" x2="590" y2="315" stroke="#3b4b5d" stroke-opacity="0.2"/>
<line x1="651" y1="297" x2="522" y2="273" stroke="#3b4b5d" stroke-opacity="0.2"/>
<line x1="715" y1="456" x2="898" y2="288" stroke="#3b4b5d" stroke-opacity="0.2"/>
<line x1="467" y1="341" x2="898" y2="288" stroke="#3b4b5d" stroke-opacity="0.2"/>
<line x1="651" y1="297" x2="418" y2="308" stroke="#3b4b5d" stroke-opacity="0.2"/>
<line x1="695" y1="245" x2="418" y2="308" stroke="#3b4b5d" stroke-opacity="0.2"/>
<line x1="527" y1="239" x2="470" y2="437" stroke="#3b4b5d" stroke-opacity="0.2"/>
<line x1="715" y1="456" x2="467" y2="341" stroke="#3b4b5d" stroke-opacity="0.2"/>
<line x1="618" y1="389" x2="412" y2="443" stroke="#3b4b5d" stroke-opacity="0.2"/>
<line x1="633" y1="309" x2="716" y2="335" stroke="#3b4b5d" stroke-opacity="0.2"/>
<line x1="864" y1="289" x2="716" y2="335" stroke="#3b4b5d" stroke-opacity="0.2"/>
<line x1="796" y1="428" x2="716" y2="335" stroke="#3b4b5d" stroke-opacity="0.2"/>
<line x1="467" y1="482" x2="619" y2="365" stroke="#3b4b5d" stroke-opacity="0.2"/>
<line x1="406" y1="477" x2="618" y2="389" stroke="#3b4b5d" stroke-opacity="0.2"/>
<line x1="487" y1="458" x2="618" y2="389" stroke="#3b4b5d" stroke-opacity="0.2"/>
<line x1="708" y1="322" x2="651" y2="297" stroke="#3b4b5d" stroke-opacity="0.2"/>
<line x1="651" y1="297" x2="527" y2="239" stroke="#3b4b5d" stroke-opacity="0.2"/>
<line x1="527" y1="239" x2="620" y2="331" stroke="#3b4b5d" stroke-opacity="0.2"/>
<line x1="584" y1="390" x2="695" y2="376" stroke="#3b4b5d" stroke-opacity="0.2"/>
<line x1="378" y1="397" x2="695" y2="376" stroke="#3b4b5d" stroke-opacity="0.2"/>
<line x1="651" y1="297" x2="824" y2="454" stroke="#3b4b5d" stroke-opacity="0.2"/>
<line x1="420" y1="393" x2="539" y2="440" stroke="#3b4b5d" stroke-opacity="0.2"/>
<line x1="771" y1="390" x2="507" y2="229" stroke="#3b4b5d" stroke-opacity="0.2"/>
<line x1="497" y1="294" x2="765" y2="427" stroke="#3b4b5d" stroke-opacity="0.2"/>
<line x1="771" y1="390" x2="765" y2="427" stroke="#3b4b5d" stroke-opacity="0.2"/>
<line x1="564" y1="439" x2="765" y2="427" stroke="#3b4b5d" stroke-opacity="0.2"/>
<line x1="497" y1="294" x2="807" y2="366" stroke="#3b4b5d" stroke-opacity="0.2"/>
<line x1="771" y1="390" x2="807" y2="366" stroke="#3b4b5d" stroke-opacity="0.2"/>
<line x1="723" y1="300" x2="807" y2="366" stroke="#3b4b5d" stroke-opacity="0.2"/>
<line x1="765" y1="427" x2="807" y2="366" stroke="#3b4b5d" stroke-opacity="0.2"/>
<line x1="597" y1="472" x2="648" y2="283" stroke="#3b4b5d" stroke-opacity="0.2"/>
<line x1="765" y1="427" x2="612" y2="485" stroke="#3b4b5d" stroke-opacity="0.2"/>
<line x1="564" y1="439" x2="612" y2="485" stroke="#3b4b5d" stroke-opacity="0.2"/>
<line x1="771" y1="390" x2="564" y2="439" stroke="#3b4b5d" stroke-opacity="0.2"/>
<line x1="497" y1="294" x2="597" y2="472" stroke="#3b4b5d" stroke-opacity="0.2"/>
<line x1="771" y1="390" x2="597" y2="472" stroke="#3b4b5d" stroke-opacity="0.2"/>
<line x1="723" y1="300" x2="597" y2="472" stroke="#3b4b5d" stroke-opacity="0.2"/>
<line x1="497" y1="294" x2="723" y2="300" stroke="#3b4b5d" stroke-opacity="0.2"/>
<line x1="771" y1="390" x2="723" y2="300" stroke="#3b4b5d" stroke-opacity="0.2"/>
<line x1="612" y1="485" x2="723" y2="300" stroke="#3b4b5d" stroke-opacity="0.2"/>
<line x1="501" y1="405" x2="420" y2="393" stroke="#3b4b5d" stroke-opacity="0.2"/>
<line x1="392" y1="275" x2="420" y2="393" stroke="#3b4b5d" stroke-opacity="0.2"/>
<line x1="785" y1="272" x2="451" y2="346" stroke="#3b4b5d" stroke-opacity="0.2"/>
<line x1="682" y1="398" x2="688" y2="315" stroke="#3b4b5d" stroke-opacity="0.2"/>
<line x1="689" y1="380" x2="688" y2="315" stroke="#3b4b5d" stroke-opacity="0.2"/>
<line x1="392" y1="275" x2="688" y2="315" stroke="#3b4b5d" stroke-opacity="0.2"/>
<line x1="688" y1="315" x2="536" y2="381" stroke="#3b4b5d" stroke-opacity="0.2"/>
<line x1="691" y1="298" x2="758" y2="288" stroke="#3b4b5d" stroke-opacity="0.2"/>
<line x1="392" y1="275" x2="758" y2="288" stroke="#3b4b5d" stroke-opacity="0.2"/>
<line x1="501" y1="405" x2="682" y2="398" stroke="#3b4b5d" stroke-opacity="0.2"/>
<line x1="501" y1="405" x2="785" y2="272" stroke="#3b4b5d" stroke-opacity="0.2"/>
<line x1="392" y1="275" x2="785" y2="272" stroke="#3b4b5d" stroke-opacity="0.2"/>
<line x1="682" y1="398" x2="785" y2="272" stroke="#3b4b5d" stroke-opacity="0.2"/>
<line x1="785" y1="272" x2="780" y2="378" stroke="#3b4b5d" stroke-opacity="0.2"/>
<line x1="689" y1="380" x2="780" y2="378" stroke="#3b4b5d" stroke-opacity="0.2"/>
<line x1="785" y1="272" x2="774" y2="257" stroke="#3b4b5d" stroke-opacity="0.2"/>
<line x1="688" y1="315" x2="774" y2="257" stroke="#3b4b5d" stroke-opacity="0.2"/>
<line x1="552" y1="396" x2="533" y2="320" stroke="#3b4b5d" stroke-opacity="0.2"/>
<line x1="790" y1="348" x2="533" y2="320" stroke="#3b4b5d" stroke-opacity="0.2"/>
<line x1="602" y1="334" x2="533" y2="320" stroke="#3b4b5d" stroke-opacity="0.2"/>
<circle cx="633" cy="309" r="4.0" fill="#1e88e5" opacity="0.9"/>
<circle cx="552" cy="396" r="4.0" fill="#1e88e5" opacity="0.9"/>
<circle cx="864" cy="289" r="4.1" fill="#1e88e5" opacity="0.9"/>
<circle cx="796" cy="428" r="4.2" fill="#1e88e5" opacity="0.9"/>
<circle cx="898" cy="288" r="4.2" fill="#1e88e5" opacity="0.9"/>
<circle cx="618" cy="389" r="4.2" fill="#1e88e5" opacity="0.9"/>
<circle cx="527" cy="239" r="4.3" fill="#1e88e5" opacity="0.9"/>
<circle cx="881" cy="408" r="4.3" fill="#43a047" opacity="0.9"/>
<circle cx="666" cy="318" r="4.3" fill="#1e88e5" opacity="0.9"/>
<circle cx="807" cy="366" r="4.3" fill="#1e88e5" opacity="0.9"/>
<circle cx="511" cy="387" r="4.3" fill="#43a047" opacity="0.9"/>
<circle cx="625" cy="252" r="4.5" fill="#1e88e5" opacity="0.9"/>
<circle cx="765" cy="427" r="4.5" fill="#1e88e5" opacity="0.9"/>
<circle cx="602" cy="334" r="4.6" fill="#1e88e5" opacity="0.9"/>
<circle cx="703" cy="220" r="4.7" fill="#1e88e5" opacity="0.9"/>
<circle cx="763" cy="291" r="4.7" fill="#1e88e5" opacity="0.9"/>
<circle cx="584" cy="390" r="4.8" fill="#1e88e5" opacity="0.9"/>
<circle cx="790" cy="348" r="4.8" fill="#1e88e5" opacity="0.9"/>
<circle cx="497" cy="294" r="4.9" fill="#1e88e5" opacity="0.9"/>
<circle cx="602" cy="321" r="4.9" fill="#43a047" opacity="0.9"/>
<circle cx="648" cy="283" r="4.9" fill="#43a047" opacity="0.9"/>
<circle cx="824" cy="454" r="5.0" fill="#1e88e5" opacity="0.9"/>
<circle cx="619" cy="365" r="5.0" fill="#1e88e5" opacity="0.9"/>
<circle cx="716" cy="335" r="5.0" fill="#1e88e5" opacity="0.9"/>
<circle cx="536" cy="381" r="5.1" fill="#1e88e5" opacity="0.9"/>
<circle cx="467" cy="341" r="5.1" fill="#1e88e5" opacity="0.9"/>
<circle cx="676" cy="322" r="5.1" fill="#1e88e5" opacity="0.9"/>
<circle cx="785" cy="272" r="5.2" fill="#1e88e5" opacity="0.9"/>
<circle cx="774" cy="257" r="5.2" fill="#1e88e5" opacity="0.9"/>
<circle cx="651" cy="297" r="5.2" fill="#1e88e5" opacity="0.9"/>
<circle cx="695" cy="245" r="5.2" fill="#1e88e5" opacity="0.9"/>
<circle cx="539" cy="440" r="5.3" fill="#1e88e5" opacity="0.9"/>
<circle cx="590" cy="315" r="5.4" fill="#43a047" opacity="0.9"/>
<circle cx="564" cy="439" r="5.6" fill="#1e88e5" opacity="0.9"/>
<circle cx="507" cy="229" r="5.6" fill="#1e88e5" opacity="0.9"/>
<circle cx="759" cy="462" r="5.6" fill="#43a047" opacity="0.9"/>
<circle cx="715" cy="456" r="5.6" fill="#1e88e5" opacity="0.9"/>
<circle cx="475" cy="415" r="5.6" fill="#1e88e5" opacity="0.9"/>
<circle cx="626" cy="376" r="5.6" fill="#1e88e5" opacity="0.9"/>
<circle cx="491" cy="247" r="5.6" fill="#43a047" opacity="0.9"/>
<circle cx="683" cy="414" r="5.7" fill="#43a047" opacity="0.9"/>
<circle cx="775" cy="302" r="5.8" fill="#1e88e5" opacity="0.9"/>
<circle cx="488" cy="288" r="5.8" fill="#1e88e5" opacity="0.9"/>
<circle cx="486" cy="441" r="5.9" fill="#43a047" opacity="0.9"/>
<circle cx="532" cy="446" r="5.9" fill="#43a047" opacity="0.9"/>
<circle cx="679" cy="350" r="5.9" fill="#1e88e5" opacity="0.9"/>
<circle cx="767" cy="258" r="6.0" fill="#1e88e5" opacity="0.9"/>
<circle cx="780" cy="378" r="6.0" fill="#1e88e5" opacity="0.9"/>
<circle cx="758" cy="288" r="6.0" fill="#1e88e5" opacity="0.9"/>
<circle cx="708" cy="322" r="6.1" fill="#1e88e5" opacity="0.9"/>
<circle cx="623" cy="373" r="6.1" fill="#1e88e5" opacity="0.9"/>
<circle cx="463" cy="440" r="6.1" fill="#1e88e5" opacity="0.9"/>
<circle cx="597" cy="472" r="6.2" fill="#1e88e5" opacity="0.9"/>
<circle cx="741" cy="279" r="6.2" fill="#43a047" opacity="0.9"/>
<circle cx="691" cy="298" r="6.2" fill="#1e88e5" opacity="0.9"/>
<circle cx="412" cy="443" r="6.2" fill="#1e88e5" opacity="0.9"/>
<circle cx="460" cy="363" r="6.3" fill="#1e88e5" opacity="0.9"/>
<circle cx="392" cy="275" r="6.3" fill="#1e88e5" opacity="0.9"/>
<circle cx="768" cy="448" r="6.3" fill="#1e88e5" opacity="0.9"/>
<circle cx="665" cy="389" r="6.3" fill="#1e88e5" opacity="0.9"/>
<circle cx="771" cy="390" r="6.3" fill="#1e88e5" opacity="0.9"/>
<circle cx="530" cy="276" r="6.4" fill="#1e88e5" opacity="0.9"/>
<circle cx="441" cy="264" r="6.5" fill="#1e88e5" opacity="0.9"/>
<circle cx="378" cy="397" r="6.5" fill="#1e88e5" opacity="0.9"/>
<circle cx="709" cy="412" r="6.5" fill="#1e88e5" opacity="0.9"/>
<circle cx="667" cy="330" r="6.6" fill="#1e88e5" opacity="0.9"/>
<circle cx="522" cy="273" r="6.6" fill="#1e88e5" opacity="0.9"/>
<circle cx="717" cy="439" r="6.7" fill="#1e88e5" opacity="0.9"/>
<circle cx="612" cy="485" r="6.7" fill="#1e88e5" opacity="0.9"/>
<circle cx="755" cy="304" r="6.7" fill="#1e88e5" opacity="0.9"/>
<circle cx="470" cy="437" r="6.7" fill="#1e88e5" opacity="0.9"/>
<circle cx="688" cy="315" r="6.7" fill="#1e88e5" opacity="0.9"/>
<circle cx="689" cy="380" r="6.8" fill="#1e88e5" opacity="0.9"/>
<circle cx="420" cy="267" r="6.8" fill="#1e88e5" opacity="0.9"/>
<circle cx="408" cy="368" r="6.8" fill="#43a047" opacity="0.9"/>
<circle cx="533" cy="320" r="6.8" fill="#7cb342" opacity="0.9"/>
<circle cx="723" cy="300" r="6.9" fill="#1e88e5" opacity="0.9"/>
<circle cx="356" cy="434" r="6.9" fill="#1e88e5" opacity="0.9"/>
<circle cx="569" cy="490" r="7.0" fill="#43a047" opacity="0.9"/>
<circle cx="687" cy="266" r="7.0" fill="#1e88e5" opacity="0.9"/>
<circle cx="381" cy="250" r="7.1" fill="#43a047" opacity="0.9"/>
<circle cx="418" cy="308" r="7.1" fill="#1e88e5" opacity="0.9"/>
<circle cx="501" cy="405" r="7.2" fill="#1e88e5" opacity="0.9"/>
<circle cx="420" cy="393" r="7.2" fill="#1e88e5" opacity="0.9"/>
<circle cx="451" cy="346" r="7.3" fill="#1e88e5" opacity="0.9"/>
<circle cx="451" cy="440" r="7.3" fill="#90a4ae" opacity="0.9"/>
<circle cx="362" cy="417" r="7.3" fill="#1e88e5" opacity="0.9"/>
<circle cx="629" cy="499" r="7.3" fill="#1e88e5" opacity="0.9"/>
<circle cx="620" cy="331" r="7.4" fill="#1e88e5" opacity="0.9"/>
<circle cx="467" cy="482" r="7.5" fill="#1e88e5" opacity="0.9"/>
<circle cx="487" cy="458" r="7.5" fill="#1e88e5" opacity="0.9"/>
<circle cx="604" cy="443" r="7.5" fill="#1e88e5" opacity="0.9"/>
<circle cx="547" cy="440" r="7.5" fill="#1e88e5" opacity="0.9"/>
<circle cx="498" cy="432" r="7.5" fill="#1e88e5" opacity="0.9"/>
<circle cx="695" cy="376" r="7.7" fill="#1e88e5" opacity="0.9"/>
<circle cx="682" cy="398" r="7.8" fill="#1e88e5" opacity="0.9"/>
<circle cx="541" cy="470" r="7.8" fill="#43a047" opacity="0.9"/>
<circle cx="406" cy="477" r="7.8" fill="#1e88e5" opacity="0.9"/>
<circle cx="379" cy="444" r="7.9" fill="#1e88e5" opacity="0.9"/>
<circle cx="667" cy="403" r="8.0" fill="#1e88e5" opacity="0.9"/>
<circle cx="920" cy="76" r="5" fill="#43a047"/>
<text x="932" y="80" fill="#8b949e" font-size="10" font-family="system-ui">CLI</text>
<circle cx="920" cy="92" r="5" fill="#1e88e5"/>
<text x="932" y="96" fill="#8b949e" font-size="10" font-family="system-ui">Crypto</text>
<circle cx="920" cy="108" r="5" fill="#8e24aa"/>
<text x="932" y="112" fill="#8b949e" font-size="10" font-family="system-ui">FHE</text>
<circle cx="920" cy="124" r="5" fill="#9c27b0"/>
<text x="932" y="128" fill="#8b949e" font-size="10" font-family="system-ui">ZK</text>
<circle cx="920" cy="140" r="5" fill="#fb8c00"/>
<text x="932" y="144" fill="#8b949e" font-size="10" font-family="system-ui">Lattice</text>
<circle cx="920" cy="156" r="5" fill="#e53935"/>
<text x="932" y="160" fill="#8b949e" font-size="10" font-family="system-ui">LoF</text>
<circle cx="920" cy="172" r="5" fill="#00acc1"/>
<text x="932" y="176" fill="#8b949e" font-size="10" font-family="system-ui">CryptoSheaf</text>
<circle cx="920" cy="188" r="5" fill="#00897b"/>
<text x="932" y="192" fill="#8b949e" font-size="10" font-family="system-ui">Quantum</text>
<circle cx="920" cy="204" r="5" fill="#7cb342"/>
<text x="932" y="208" fill="#8b949e" font-size="10" font-family="system-ui">UnifiedPack</text>
<circle cx="920" cy="220" r="5" fill="#d81b60"/>
<text x="932" y="224" fill="#8b949e" font-size="10" font-family="system-ui">Contextuality</text>
</svg>